<?xml version="1.0" encoding="UTF-8"?><svg id="Layer_1" xmlns="http://www.w3.org/2000/svg" viewBox="0 0 175 175"><defs><style>.cls-1{fill:red;}</style></defs><path class="cls-1" d="M71.39,59.79v13.39h7.38v-13.39c0-1.44-1.65-1.83-3.69-1.83s-3.69,.39-3.69,1.83Z"/><path class="cls-1" d="M96.23,59.79v13.39h7.38v-13.39c0-1.44-1.65-1.83-3.69-1.83s-3.69,.39-3.69,1.83Z"/><path class="cls-1" d="M86.24,52.64c-.91,0-1.65,.74-1.65,1.65v18.89h5.81v-18.89c0-.91-.74-1.65-1.65-1.65h-2.52Z"/><path class="cls-1" d="M157.09,90.48c-.41-17.88-7.66-34.75-20.42-47.51-12.75-12.76-29.62-20.02-47.5-20.44-.56-.01-1.12-.02-1.68-.02-18.28,0-35.55,7.04-48.63,19.81-13.53,13.21-20.97,30.9-20.97,49.8,0,20.72,10.06,41.39,25.62,52.65,7,5.06,14.51,7.74,21.72,7.74,4.23,0,8.18-.93,11.74-2.75,9.23-4.71,14.73-14.76,15.29-27.76h.96c1.96,0,3.59-1.51,3.74-3.46l.3-3.95c.23-3.02,1.78-5.74,4.13-7.65,4.58-3.73,7.49-9.26,7.49-15.44v-9.6c.77-.38,1.3-1.16,1.3-2.07v-3.28c0-1.28-1.04-2.31-2.31-2.31h-40.74c-1.28,0-2.31,1.04-2.31,2.31v3.28c0,.91,.54,1.7,1.31,2.07v9.6c0,6.18,2.9,11.72,7.49,15.44,2.35,1.91,3.9,4.63,4.13,7.65l.3,3.95c.15,1.95,1.78,3.46,3.73,3.46h.85c-.49,9.22-4.08,16.15-10.03,19.19-2.2,1.13-4.69,1.7-7.38,1.7-5.16,0-10.71-2.04-16.06-5.91-13.14-9.51-21.63-27.11-21.63-44.85,0-16.29,6.42-31.53,18.07-42.91,11.27-11.01,26.15-17.07,41.91-17.07,.48,0,.96,0,1.45,.02,32.08,.76,57.78,26.47,58.52,58.55,.3,12.93-3.67,25.82-11.17,36.31-1.47,2.05-1.06,4.92,.92,6.53,.86,.69,1.93,1.07,3.03,1.07,1.53,0,2.97-.73,3.85-1.96,8.73-12.18,13.34-27.16,13-42.17Zm-76.37,5.04l3.77-13.38h6.51l-2.69,8,6.91-.19-11.02,17.09,2.35-11.77-5.83,.25Z"/></svg>