<svg width="1280" height="1280" viewBox="0 0 1280 1280" fill="none" xmlns="http://www.w3.org/2000/svg">
<path fill-rule="evenodd" clip-rule="evenodd" d="M640 1270C987.939 1270 1270 987.939 1270 640C1270 292.061 987.939 10 640 10C292.061 10 10 292.061 10 640C10 987.939 292.061 1270 640 1270ZM764.34 743.609C785.14 721.609 813.28 710.609 843.87 710.609C858.82 710.581 873.629 713.506 887.447 719.215C901.264 724.923 913.819 733.304 924.39 743.876C934.961 754.448 943.341 767.003 949.048 780.821C954.756 794.64 957.679 809.449 957.65 824.399C957.65 886.789 906.26 938.179 843.86 938.179C781.46 938.179 730.07 886.789 730.07 824.399V817.059C699.591 798.608 666.636 784.6 632.2 775.459C607.73 846.419 574.69 932.059 549 952.859C525.42 970.843 496.654 980.715 467 980.999H459.7C381.4 980.999 319 917.379 319 840.299C319 808.489 327.56 761.999 364.27 727.739C402.2 693.489 460.92 678.799 538 684.919C558.524 686.098 578.954 688.559 599.17 692.289C601.046 686.664 603.612 678.853 606.41 670.338C612.737 651.077 620.249 628.213 623.64 618.879C584.49 609.099 547.75 595.639 514.75 578.509C493.96 600.509 465.82 611.509 435.23 611.509C372.83 611.509 321.45 560.119 321.45 497.729C321.45 435.339 372.83 383.999 435.23 383.999C497.63 383.999 549 435.339 549 497.729V505.069C579.484 523.523 612.447 537.531 646.89 546.669C671.36 475.709 704.39 390.069 730.08 369.269C767.868 339.501 808.861 340.804 817.984 341.094C818.61 341.114 819.085 341.129 819.4 341.129C897.7 341.129 960.09 404.749 960.09 481.789C960.09 513.599 951.53 560.089 914.83 594.349C876.9 628.599 818.17 643.279 741.09 637.169C720.567 635.999 700.137 633.548 679.92 629.829C678.167 635.1 675.812 642.272 673.229 650.138C666.795 669.73 658.946 693.632 655.45 703.229C694.6 713.019 731.34 726.479 764.34 743.609ZM737.42 561.349C815.73 566.249 867.11 556.459 891.58 530.769C905 516.079 909.93 496.509 907.52 470.819C903.88 442.679 874.48 368.049 832.88 359.479C810.82 355.809 787.62 371.719 766.82 407.199C748.473 442.679 727.673 492.839 704.42 557.679C711.763 559.315 719.107 559.858 726.45 560.402C730.107 560.673 733.763 560.943 737.42 561.349ZM501.3 758.329C443.79 758.329 404.64 769.339 385.07 790.139C371.61 804.819 366.72 824.399 369.12 850.089C372.75 878.229 402.16 952.859 443.75 961.419C465.797 965.092 487.82 949.189 509.82 913.709C528.173 878.229 548.973 828.066 572.22 763.219C564.907 761.597 557.593 761.053 550.28 760.509C546.593 760.235 542.907 759.961 539.22 759.549C525.77 758.329 513.53 758.329 501.3 758.329Z" fill="#A5A7B8"/>
</svg>
