<svg viewBox="0 0 3022.54 640" xmlns="http://www.w3.org/2000/svg"><g fill="#1e2347"><path d="m524.87 369.61c-30.59 0-58.73 11-79.53 33-33-17.13-69.74-30.59-108.89-40.38 4.9-13.45 18.35-55 24.47-73.4a493.34 493.34 0 0 0 61.17 7.34c77.08 6.11 135.81-8.57 173.74-42.82 36.7-34.26 45.26-80.75 45.26-112.56 0-77.04-62.39-140.66-140.69-140.66-4.9 0-48.94-3.67-89.32 28.14-25.69 20.8-58.72 106.44-83.19 177.4a374.46 374.46 0 0 1 -97.89-41.6v-7.34c0-62.39-51.37-113.73-113.77-113.73s-113.78 51.34-113.78 113.73 51.38 113.78 113.78 113.78c30.59 0 58.73-11 79.52-33 33 17.13 69.74 30.59 108.89 40.37-4.89 13.46-18.35 55.06-24.47 73.41a492.88 492.88 0 0 0 -61.17-7.37c-77.08-6.12-135.8 8.57-173.73 42.82-36.71 34.26-45.27 80.75-45.27 112.56 0 77.08 62.4 140.7 140.7 140.7h7.3a137.39 137.39 0 0 0 82-28.14c25.69-20.8 58.73-106.44 83.2-177.4a374.54 374.54 0 0 1 97.87 41.6v7.34c0 62.39 51.39 113.78 113.79 113.78s113.79-51.39 113.79-113.78a113.57 113.57 0 0 0 -113.78-113.79zm47.71-179.84c-24.47 25.69-75.85 35.48-154.16 30.58-11-1.22-22-1.22-33-3.67q34.88-97.26 62.4-150.48c20.8-35.48 44-51.39 66.06-47.72 41.6 8.57 71 83.2 74.64 111.34 2.41 25.69-2.52 45.26-15.94 59.95zm-506.51 259.37c19.57-20.8 58.72-31.81 116.23-31.81 12.23 0 24.47 0 37.92 1.22 11 1.23 22 1.23 33 3.67q-34.87 97.27-62.4 150.49-33 53.22-66.07 47.71c-41.59-8.56-71-83.19-74.63-111.33-2.4-25.69 2.49-45.27 15.95-59.95z"/><path d="m953.61 140.24c0-67.09 32.67-100 99.21-100h85.91v84.17h-55.66c-32.67 0-36.3 20.74-36.3 39v41.47h92v82.95h-92v303.76h-93.16v-303.75h-69v-84.17h69zm350.88 451.35v-386.7h-96.8l3.63 387.92h93.17zm895.32 0v-386.7h-96.81l3.63 387.92h93.16zm-608.58-225.68-93.16-20.73c-30.25-7.32-36.3-23.18-36.3-36.6 1.21-23.18 21.78-37.82 54.45-37.82 30.24 0 52 14.64 59.28 39h96.79c-8.46-74.41-58.07-111-153.65-111-35.09 0-151.24 8.54-151.24 109.79 0 91.49 73.8 115.89 96.79 120.77l85.91 19.51c18.14 3.66 41.13 12.2 41.13 37.82 0 24.4-20.57 37.82-58.08 37.82-35.08 0-73.8-14.64-81.06-46.36h-94.37c8.47 109.79 134.3 118.33 173 118.33 104.06 0 154.87-36.6 154.87-109.79.01-81.65-50.8-110.98-94.36-120.74zm364.18 0-93.16-20.73c-30.25-7.32-36.25-23.18-36.25-36.6 1.21-23.18 21.78-37.82 54.45-37.82 30.24 0 52 14.64 59.28 39h96.79c-8.46-74.41-58.07-111-153.65-111-35.09 0-151.24 8.54-151.24 109.79 0 91.49 73.8 115.89 96.79 120.77l85.91 19.51c18.14 3.66 41.13 12.2 41.13 37.82 0 24.4-20.57 37.82-58.08 37.82-35.08 0-73.8-14.64-81.06-46.36h-94.42c8.47 109.79 134.3 118.33 173 118.33 104.06 0 154.87-36.6 154.87-109.79.01-81.65-50.77-110.98-94.36-120.74zm912.27-169.56c-60.5 0-87.11 24.4-96.8 39l-10.88 15.9v-46.36h-93.16v387.92h93.16v-236.66c0-63.43 46-86.61 84.69-86.61s84.69 23.18 84.69 86.61v236.66h93.16v-241.53c-1.21-113.45-81.06-154.93-154.86-154.93zm-256.5 173.22v53.68c0 111-62.92 173.22-177.86 173.22s-177.85-61-177.85-173.22v-53.68c0-111 62.91-173.22 177.85-173.22s177.86 62.22 177.86 173.22zm-99.18-13.42c0-48.79-27.82-85.39-78.64-85.39s-78.64 36.6-78.64 85.39v80.52c0 48.79 27.83 89.05 78.64 89.05s78.64-40.26 78.64-89.05zm-1207.51-315.94h-96.8v84.17h96.8zm895.32 0h-96.81v84.17h96.79z"/></g></svg>